<?xml version="1.0" encoding="UTF-8"?>
<svg xmlns="http://www.w3.org/2000/svg" width="227" height="56" viewBox="0 0 227 56" fill="none">
  <g clip-path="url(#clip0)">
    <path d="M20.8236 21.4655C20.1845 21.4655 19.3856 21.6253 18.6578 21.9449C18.6578 22.5841 18.6578 40.0552 18.6578 40.0552C17.9299 39.6469 17.2198 39.1675 16.5807 38.6171C15.6221 37.7293 14.8943 36.6107 14.3439 35.3323C13.7049 33.8054 13.4563 31.1599 13.4563 28.9227V7.93602C13.2966 6.56887 12.1782 5.53906 10.8112 5.53906C10.3319 5.53906 9.85259 5.69886 9.53304 5.85866C3.6925 10.6526 0 17.8612 0 25.9576C0 39.6469 10.6514 50.8682 24.1965 51.6672V26.1884C24.1965 24.6614 23.877 23.4718 23.2379 22.6551C22.51 21.8739 21.7112 21.4655 20.8236 21.4655Z" fill="black"></path>
    <path d="M40.4398 31.0006C39.3924 36.0431 35.8774 40.2156 31.1553 42.1332C31.1553 42.1332 30.1079 42.5415 29.4688 42.6126V51.3481C41.9665 49.5016 51.4996 38.7774 51.4996 25.7984C51.4996 11.5409 39.9605 0 25.7053 0C21.1429 0 16.8114 1.20736 13.0479 3.28472C13.7757 3.12492 14.4148 3.12492 14.8053 3.12492C16.0835 3.12492 17.0421 3.53329 17.6812 4.2435C18.2493 4.97146 18.5688 5.93025 18.5688 8.16741C18.5688 8.89537 18.5688 18.8205 18.5688 19.7793C19.1369 19.4597 19.776 19.2112 20.4151 18.9803C21.214 18.7318 22.1016 18.6607 23.0602 18.6607C25.1372 18.6607 26.6639 19.2999 27.7823 20.5073C28.9008 21.7146 29.4688 23.4724 29.4688 25.7984V40.695C29.6286 40.6062 29.7884 40.6062 29.9481 40.5352C32.1139 39.7362 34.0312 38.298 35.3094 36.3627C36.5875 34.5162 37.3154 32.35 37.3154 29.9531C37.3154 28.2663 36.9958 26.7571 36.268 25.3012L32.8418 23.4724C32.8418 19.7793 36.6941 18.1103 38.8421 19.9391C39.4102 20.4185 39.7297 20.9867 40.0493 21.6259C40.3688 22.3538 40.5286 23.064 40.6883 23.9518C40.7771 24.7508 40.8481 25.6386 40.8481 26.5086C40.8481 27.0057 40.7771 29.6335 40.4398 31.0006Z" fill="black"></path>
    <path d="M198.472 14.7817C198.472 9.25983 200.869 7.25349 203.602 7.25349C204.881 7.25349 205.839 7.73288 205.839 7.82166L207.117 12.225C207.117 12.225 207.756 12.4735 208.484 12.4735C210.331 12.4735 211.289 11.1952 211.289 9.6682C211.289 7.34227 208.733 4.94531 204.65 4.94531C198.809 4.94531 193.519 10.8756 193.519 17.9954V18.244L189.915 19.2915V21.4577H193.519V39.8876L190.324 40.9352V42.6929H203.052V40.8464L198.49 39.7988V21.4222H205.307V18.7056H198.472V14.7817Z" fill="black"></path>
    <path d="M180.134 39.286C174.932 39.286 171.329 35.5219 171.329 29.1123H188.069C187.98 22.2233 184.785 18.0508 178.856 18.0508C171.968 18.0508 166.606 23.8212 166.606 31.669C166.606 36.3209 169.482 43.5295 177.897 43.5295C185.353 43.5295 187.821 36.9601 188.229 36.4807L187.181 35.7527C187.181 35.6817 184.377 39.286 180.134 39.286ZM177.648 20.3945C180.933 20.3945 182.371 23.4306 182.459 26.8751H171.488C172.216 23.111 174.613 20.3945 177.648 20.3945Z" fill="black"></path>
    <path d="M225.953 35.6817C225.953 35.6817 223.148 39.286 218.905 39.286C213.704 39.286 210.1 35.5219 210.1 29.1123H226.84C226.752 22.2233 223.556 18.0508 217.627 18.0508C210.739 18.0508 205.378 23.8212 205.378 31.669C205.378 36.3209 208.254 43.5295 216.668 43.5295C224.124 43.5295 226.592 36.9601 227 36.4807L225.953 35.6817ZM216.42 20.3945C219.704 20.3945 221.142 23.4306 221.231 26.8751H210.26C210.97 23.111 213.384 20.3945 216.42 20.3945Z" fill="black"></path>
    <path d="M107.97 17.9062C101.153 17.9062 95.8809 23.7477 95.8809 31.1161C95.8809 37.6856 100.053 43.456 107.97 43.456C114.858 43.456 120.06 37.6146 120.06 30.1574C120.06 22.5404 115.337 17.9062 107.97 17.9062ZM108.769 41.0591C103.727 41.1478 101.473 35.2176 101.313 29.6069C101.224 24.3159 103.479 20.321 107.402 20.2322C111.734 20.1434 114.698 24.3159 114.769 31.5245C114.858 36.8866 112.621 41.0591 108.769 41.0591Z" fill="black"></path>
    <path d="M91.7977 26.4668C91.7977 20.1459 89.4721 17.9798 84.6612 17.9798C80.4894 17.9798 77.4537 21.2645 76.4063 22.4719V4.92969L67.9917 6.29684V7.89481L71.4357 9.10217V39.7122L68.2402 40.7597V42.6773H79.6905V40.8308L76.4951 39.872V24.1764C77.1342 23.5372 79.4598 21.6906 82.1759 21.6906C85.5311 21.6906 86.6672 23.697 86.898 27.2125V39.872L84.0221 40.8308V42.6773H95.2416V40.8308L91.8864 39.7832V26.4845H91.7977V26.4668Z" fill="black"></path>
    <path d="M163.553 17.9062C161.707 17.9062 160.428 19.1136 158.511 21.5993L156.665 24.0851H156.576L156.097 17.995H155.866L148.499 20.4808V22.1675L151.854 22.8067V39.7097L148.659 40.7572V42.6748H161.316V40.7572L156.825 39.9582V26.1802C158.103 24.5822 159.221 23.6234 160.18 22.8955L164.423 24.4934C165.151 23.6057 166.269 22.4161 166.269 20.8004C166.358 19.0248 165.328 17.9062 163.553 17.9062Z" fill="black"></path>
    <path d="M138.646 40.2448L129.273 39.7654C127.995 39.6767 127.196 38.8777 127.196 38.0787C127.196 37.3507 127.835 36.3919 128.794 35.6817C130.001 36.0901 131.35 36.3209 132.717 36.3209C138.078 36.3209 143.049 32.7166 143.049 27.3545C143.049 24.709 141.771 22.8625 140.493 21.8327L140.581 21.6729L146.102 21.9924V18.7965L139.126 19.5245C137.049 18.7965 135.362 18.2461 132.966 18.2461C127.445 18.2461 122.953 22.0102 122.953 27.4611C122.953 30.9943 124.64 33.3913 126.965 34.8295C125.048 36.5162 123.93 38.0254 122.953 40.5112L126.557 44.0444V44.2042L125.35 44.8434C122.793 46.2106 121.498 48.1282 121.498 50.1345C121.498 53.7388 125.669 55.976 130.871 55.976C140.084 55.976 145.925 50.7737 145.925 46.4414C146.173 42.8193 143.848 40.4934 138.646 40.2448ZM132.646 20.1459C135.611 20.1459 137.936 22.6316 137.936 27.9227C137.936 31.527 136.019 33.924 133.445 33.924C130.249 33.924 128.155 30.9588 128.155 25.9874C128.155 22.312 129.752 20.1459 132.646 20.1459ZM133.764 52.8333C128.723 52.8333 126.717 50.2765 126.717 48.2702C126.717 46.5834 127.924 44.9855 128.563 44.1865L138.646 44.8257C141.203 45.0742 142.25 46.1041 142.25 47.7908C142.25 50.028 139.765 52.8333 133.764 52.8333Z" fill="black"></path>
  </g>
  <defs>
    <clipPath id="clip0">
      <path d="M0 0H227V56H0V0Z" fill="white"></path>
    </clipPath>
  </defs>
</svg>
